<svg width="146" height="176" viewBox="0 0 146 176" fill="none" xmlns="http://www.w3.org/2000/svg">
<path fill-rule="evenodd" clip-rule="evenodd" d="M135 149V144.564C150.928 162.789 145.238 158.578 135 149Z" fill="#4A889C"/>
<path d="M135 1L106.418 113C119.717 127.411 128.929 137.618 135 144.564V1Z" fill="#4A889C"/>
<path d="M27.593 29L1 175L40.8481 43C36.5917 38.499 32.1751 33.8341 27.593 29Z" fill="#4A889C"/>
<path d="M1 1C10.4288 10.9099 19.283 20.2331 27.593 29M106.418 113L135 1V144.564M106.418 113C90.7498 96.0198 69.4084 73.2019 40.8481 43M106.418 113C119.717 127.411 128.929 137.618 135 144.564M27.593 29L1 175L40.8481 43M27.593 29C32.1751 33.8341 36.5917 38.499 40.8481 43M135 144.564V149C145.238 158.578 150.928 162.789 135 144.564Z" stroke="black"/>
</svg>
